<svg xmlns="http://www.w3.org/2000/svg" xmlns:v="http://vecta.io" xmlns:xlink="http://www.w3.org/1999/xlink" viewBox="0 0 74.375 85" stroke="#000" stroke-linecap="round" stroke-linejoin="round" fill="#fff" fill-rule="evenodd" font-family="Roboto" font-size="14px" text-anchor="middle" width="300" height="300"><defs><style type="text/css"></style></defs><use xlink:href="#p5JU9aw60yZG3LlsXDTfUl.sym" x="2.1875" y="2.5"><title>AWS CodeBuild</title></use><symbol id="p5JU9aw60yZG3LlsXDTfUl.sym" overflow="visible" v:tags="aws, amazon, developer, tools, codebuild"><title>AWS CodeBuild</title><desc>Compiles source code, runs tests, and produces software packages.</desc><g id="j3ikn3pz1l9" class="Group.cls" transform="translate(0 0)" v:size="74.375,85,2.1875,2.5"><g id="j3ikn3kf1jl" transform="translate(0 49.3073)"><path d="M 13.9897 0.8097 L 8.9484 0 L 0 0.7512 L 4.402 15.4829 L 13.9897 0.8097 Z" fill="#b7ca9d" stroke="none"></path></g><g id="j3ikn3kn1jm" transform="translate(0 32.6927)"><path d="M 0 0.6049 L 0 13.9805 L 4.5257 14.5951 L 13.3505 7.7268 L 4.5257 0 L 0 0.6049 Z" fill="#4b612c" stroke="none"></path></g><g id="j3ikn3ks1jn" transform="translate(0.8763 50.1171)"><path d="M 3.6495 0.9073 L 13.1134 0 L 13.1134 13.4049 L 3.6495 14.0488 L 0 7.0634 L 3.6495 0.9073 Z" fill="#759c3e" stroke="none"></path></g><g id="j3ikn3kz1jo" transform="translate(0 15.0732)"><path d="M 9.0722 15.6293 L 13.9897 14.8488 L 4.5257 0 L 0 14.8683 L 9.0722 15.6293 Z" fill="#3c4929" stroke="none"></path></g><g id="j3ikn3l51jp" transform="translate(4.5257 14.4098)"><path d="M 0 0 L 9.4639 2.1073 L 9.4639 15.5122 L 0 14.6146 L 0 0 Z" fill="#759c3e" stroke="none"></path></g><g id="j3ikn3lb1jq" transform="translate(4.5257 32.722)"><path d="M 0 0 L 9.4639 0.5951 L 9.4639 14.0098 L 0 14.6146 L 0 0 Z" fill="#759c3e" stroke="none"></path></g><g id="j3ikn3lh1jr" transform="translate(4.5257 11.5317)"><path d="M 9.4639 14.4097 L 16.7011 12.8097 L 6.7835 0 L 0 13.1512 L 9.4639 14.4097 Z" fill="#3c4929" stroke="none"></path></g><g id="j3ikn3lo1js" transform="translate(11.3093 11.2195)"><path d="M 0 0 L 9.9175 2.6342 L 9.9175 13.122 L 0 11.5415 L 0 0 Z" fill="#759c3e" stroke="none"></path></g><g id="j3ikn3lx1jt" transform="translate(4.5257 54.039)"><path d="M 16.7011 1.6 L 9.4845 0 L 0 1.2683 L 6.7835 14.7903 L 16.7011 1.6 Z" fill="#b7ca9d" stroke="none"></path></g><g id="j3ikn3m31ju" transform="translate(2.3402 55.6585)"><path d="M 8.9691 1.5805 L 18.8866 0 L 18.8866 10.5269 L 8.9691 13.1708 L 0 6.5854 L 8.9691 1.5805 Z" fill="#759c3e" stroke="none"></path></g><g id="j3ikn3m91jv" transform="translate(48.7629 11.1805)"><path d="M 21.165 18.7512 L 12.0928 19.5122 L 0 17.6 L 9.8557 0 L 21.165 18.7512 Z" fill="#3c4929" stroke="none"></path></g><g id="j3ikn3mc1jw" transform="translate(0 50.0586)"><path d="M 4.5257 5.2488 L 4.5257 0.9268 L 0 0 L 0 13.3756 L 11.3093 18.7317 L 11.3093 7.1707 L 4.5257 5.2488 Z" fill="#4b612c" stroke="none"></path></g><g id="j3ikn3mk1jx" transform="translate(48.7629 49.3073)"><path d="M 21.1856 0.761 L 12.1135 0 L 0 1.922 L 9.8557 19.161 L 21.1856 0.761 Z" fill="#b7ca9d" stroke="none"></path></g><g id="j3ikn3mq1jy" transform="translate(48.7629 11.1805)"><path d="M 9.8557 0 L 0 2.6244 L 0 17.6 L 9.8557 16.4781 L 20.5774 10.3512 L 9.8557 0 Z" fill="#4b612c" stroke="none"></path></g><g id="j3ikn3mu1jz" transform="translate(48.7629 31.678)"><path d="M 9.8557 0 L 0 0.761 L 0 15.7366 L 9.8557 16.4781 L 20.5774 8.5951 L 9.8557 0 Z" fill="#4b612c" stroke="none"></path></g><g id="j3ikn3n31k0" transform="translate(48.7629 51.2878)"><path d="M 9.8557 1.1317 L 0 0 L 0 14.9756 L 9.8557 17.6098 L 19.7732 6.9073 L 9.8557 1.1317 Z" fill="#4b612c" stroke="none"></path></g><g id="j3ikn3n81k1" transform="translate(14.6907 6.878)"><path d="M 9.9072 0 L 0 14.9268 L 10.0825 16.6732 L 20.299 14.4195 L 9.9072 0 Z" fill="#3c4929" stroke="none"></path></g><g id="j3ikn3nd1k2" transform="translate(24.5979 0.0975)"><path d="M 30.6495 26.8586 L 20.5568 28.1073 L 0 24.8488 L 10.3918 0 L 30.6495 26.8586 Z" fill="#3c4929" stroke="none"></path></g><g id="j3ikn3nl1k3" transform="translate(24.5979 28.5756)"><path d="M 10.3918 22.8195 L 29.8455 11.4537 L 10.3918 0 L 0 1.4049 L 0 21.4244 L 10.3918 22.8195 Z" fill="#4b612c" stroke="none"></path></g><g id="j3ikn3no1k4" transform="translate(34.9897 28.5756)"><path d="M 0 0 L 0 22.8195 L 20.2577 20.0878 L 20.2577 2.7317 L 0 0 Z" fill="#759c3e" stroke="none"></path></g><g id="j3ikn3nr1k5" transform="translate(24.5979 51.7951)"><path d="M 30.6495 1.2585 L 20.5568 0 L 0 3.2683 L 10.3918 28.1951 L 30.6495 1.2585 Z" fill="#b7ca9d" stroke="none"></path></g><g id="j3ikn3ny1k6" transform="translate(14.7319 56.439)"><path d="M 20.1959 2.2342 L 10.1135 0 L 0 1.7561 L 9.4846 18.078 L 20.1959 2.2342 Z" fill="#b7ca9d" stroke="none"></path></g><g id="j3ikn3o31k7" transform="translate(14.6804 55.0634)"><path d="M 0 3.1219 L 0 15.3268 L 20.3093 24.9366 L 39.2475 7.1805 L 20.3093 2.1171 L 9.9175 0 L 9.9175 5.9317 L 0 3.1219 Z" fill="#4b612c" stroke="none"></path></g><g id="j3ikn3o71k8" transform="translate(0 11.2195)"><path d="M 11.3093 11.5415 L 11.3093 0 L 0 5.3464 L 0 18.722 L 4.5257 17.8049 L 4.5257 13.4634 L 11.3093 11.5415 Z" fill="#4b612c" stroke="none"></path></g><g id="j3ikn3of1k9" transform="translate(14.6804 0.0195)"><path d="M 9.9175 18.9756 L 9.9175 24.9268 L 20.3093 22.8195 L 39.0103 17.7561 L 20.3093 0 L 0 9.6 L 0 21.7854 L 9.9175 18.9756 Z" fill="#4b612c" stroke="none"></path></g><g id="j3ikn3oj1ka" transform="translate(34.9897 0)"><path d="M 0 0 L 0 22.839 L 20.2577 26.9561 L 20.2577 9.5805 L 0 0 Z" fill="#759c3e" stroke="none"></path></g><g id="j3ikn3om1kb" transform="translate(58.6186 11.1805)"><path d="M 11.3814 18.7707 L 11.3814 5.3854 L 0 0 L 0 16.4586 L 11.3814 18.7707 Z" fill="#759c3e" stroke="none"></path></g><g id="j3ikn3op1kc" transform="translate(58.6186 31.7658)"><path d="M 11.3814 14.9073 L 11.3814 1.5415 L 0 0 L 0 16.4488 L 11.3814 14.9073 Z" fill="#759c3e" stroke="none"></path></g><g id="j3ikn3p11kd" transform="translate(34.9897 53.0537)"><path d="M 0 4.1268 L 0 26.9366 L 20.2577 17.3463 L 20.2577 0 L 0 4.1268 Z" fill="#759c3e" stroke="none"></path></g><g id="j3ikn3p41ke" transform="translate(58.6186 50.0586)"><path d="M 11.3814 13.3658 L 11.3814 0 L 0 2.3122 L 0 18.7512 L 11.3814 13.3658 Z" fill="#759c3e" stroke="none"></path></g></g></symbol></svg>