<?xml version="1.0" encoding="UTF-8"?>
<svg width="61px" height="61px" viewBox="0 0 61 61" version="1.1" xmlns="http://www.w3.org/2000/svg" xmlns:xlink="http://www.w3.org/1999/xlink">
    <!-- Generator: Sketch 55.1 (78136) - https://sketchapp.com -->
    <title>Group 2</title>
    <desc>Created with Sketch.</desc>
    <g id="Page-1" stroke="none" stroke-width="1" fill="none" fill-rule="evenodd">
        <g id="iPhone-8" transform="translate(-262.000000, -218.000000)">
            <g id="Group-2" transform="translate(262.000000, 218.000000)">
                <rect id="Rectangle" stroke="#979797" fill="#D8D8D8" x="0.5" y="0.5" width="60" height="60"></rect>
                <g id="cool-svgrepo-com" transform="translate(10.000000, 10.000000)" fill-rule="nonzero">
                    <path d="M21,42 C9.42063281,42 0,32.5794492 0,21 C0,9.42055078 9.42063281,0 21,0 C32.5793672,0 42,9.42063281 42,21 C42,32.5793672 32.5794492,42 21,42 Z" id="Path" fill="#FFD155"></path>
                    <path d="M21,0 L21,42 C32.5793672,42 42,32.5793672 42,21 C42,9.42063281 32.5794492,0 21,0 Z" id="Path" fill="#FFC72D"></path>
                    <g id="Group" transform="translate(5.000000, 12.000000)" fill="#2C3E50">
                        <path d="M16,23.9439721 C13.3757551,23.9439721 11.2407347,21.5989129 11.2407347,18.7163206 C11.2407347,17.7757213 11.9851429,17.0130732 12.9034286,17.0130732 C13.8217143,17.0130732 14.5661224,17.7756376 14.5661224,18.7163206 C14.5661224,19.7205575 15.2093878,20.5374774 16.0000816,20.5374774 C16.7906939,20.5374774 17.4339592,19.7204739 17.4339592,18.7163206 C17.4339592,17.7757213 18.1783673,17.0130732 19.0966531,17.0130732 C20.0148571,17.0130732 20.7593469,17.7756376 20.7593469,18.7163206 C20.7593469,21.5989129 18.6242449,23.9439721 16,23.9439721 Z" id="Path"></path>
                        <path d="M28.488,0.0153867596 C27.3131429,0.0153867596 4.45771429,0.0153867596 3.51208163,0.0153867596 C1.58963265,0.0153867596 0.0256326531,1.6175331 0.0256326531,3.58687108 L0.0256326531,10.6156934 C0.0256326531,12.5850314 1.58963265,14.1871777 3.51208163,14.1871777 L11.7454694,14.1871777 C13.6679184,14.1871777 15.2319184,12.5850314 15.2319184,10.6156934 L15.2319184,8.8044878 L16.7682449,8.8044878 L16.7682449,10.6156934 C16.7682449,12.5850314 18.3322449,14.1871777 20.2546939,14.1871777 L28.4880816,14.1871777 C30.4105306,14.1871777 31.9745306,12.5850314 31.9745306,10.6156934 L31.9745306,3.58687108 C31.9745306,1.6175331 30.410449,0.0153867596 28.488,0.0153867596 Z M15.2318367,5.39799303 L15.2318367,3.58678746 C15.2318367,3.53134495 15.2302041,3.47657143 15.2277551,3.42171429 L16.7722449,3.42171429 C16.7697959,3.47640418 16.7681633,3.53142857 16.7681633,3.58678746 L16.7681633,5.39799303 L15.2318367,5.39799303 Z" id="Shape"></path>
                    </g>
                    <path d="M33.5079745,12 C31.7243097,12 22.1566226,12 21,12 L21,15.3651185 L21.7734801,15.3651185 C21.7710272,15.4191455 21.7693919,15.4735028 21.7693919,15.5281907 L21.7693919,17.3174407 L21,17.3174407 L21,20.6825593 L21.7693919,20.6825593 L21.7693919,22.4718093 C21.7693919,24.4172749 23.3358935,26 25.2614175,26 L33.5079745,26 C35.4334984,26 37,24.4172749 37,22.4718093 L37,15.5281907 C37,13.5827251 35.4334984,12 33.5079745,12 Z" id="Path" fill="#22313F"></path>
                    <path d="M23.4151958,25.431482 C22.8098767,24.7346543 22.8739579,23.6699346 23.558221,23.0535832 L34.2497817,13.4228863 C34.9340448,12.8062868 35.9795664,12.87171 36.5848042,13.5685378 C37.1901233,14.2653655 37.1260421,15.3299198 36.441779,15.9464366 L25.7502183,25.5771335 C25.0661989,26.1934021 24.0205961,26.1286406 23.4151958,25.431482 Z" id="Path" fill="#238CC5"></path>
                    <path d="M5.41519578,25.431452 C4.80987671,24.7346222 4.87395785,23.6698994 5.55822099,23.0535462 L16.2497817,13.4228209 C16.9339636,12.8063851 17.9795664,12.8716431 18.5848042,13.5684728 C19.1901233,14.2653026 19.1260421,15.32986 18.441779,15.9463786 L7.75021834,25.5771039 C7.06628008,26.1933743 6.0207585,26.1286953 5.41519578,25.431452 Z" id="Path" fill="#51B3DA"></path>
                    <path d="M24.253259,29 C23.2885935,29 22.5064322,29.7701765 22.5064322,30.7202495 C22.5064322,31.7345109 21.8306175,32.5595854 21,32.5595854 L21,36 C23.7570326,36 26,33.631532 26,30.7201651 C26,29.770261 25.2179245,29 24.253259,29 Z" id="Path" fill="#22313F"></path>
                </g>
            </g>
        </g>
    </g>
</svg>